<svg xmlns="http://www.w3.org/2000/svg" width="812.827" height="946.664" viewBox="0 0 812.827 946.664"><defs><style>.a{fill:#505255;}.a,.b{opacity:0.83;}.b{fill:#ffc222;}</style></defs><g transform="translate(-929 1243.688)"><path class="a" d="M98.074,338.2h0L0,107.156l234.979,36.6L98.074,338.2Z" transform="translate(1471.7 -792)"/><path class="a" d="M736.944,487.32h0L682.851,255.742l231.577,54.094L736.944,487.319Z" transform="translate(818 -1490)"/><path class="a" d="M125.5,0,251,202H0Z" transform="translate(1158.109 -1025.999) rotate(-45)"/><path class="a" d="M125.5,0,251,202H0Z" transform="translate(1197.883 -476.502) rotate(-135)"/><path class="a" d="M125.5,0,251,202H0Z" transform="matrix(0.848, 0.53, -0.53, 0.848, 1440.78, -732.482)"/><path class="a" d="M212.991,957.877v0h0L.131,824.865l213.474-104.8-.614,237.811v0h0v0Z" transform="translate(1528.222 -1269.499)"/><path class="a" d="M212.991,957.877v0h0L.131,824.865l213.474-104.8-.614,237.811v0h0v0Z" transform="translate(1528.222 -1904.433)"/><path class="b" d="M332.954,371.319v0h0L100.231,277.291,292.263,137.013l40.691,234.3v0h0v0Z" transform="translate(1254 -1348)"/><path class="b" d="M125.5,0,251,202H0Z" transform="translate(1175.902 -1133.783) rotate(22)"/><path class="b" d="M125.5,0,251,202H0Z" transform="translate(1270.916 -636.901) rotate(158)"/><path class="b" d="M125.5,0,251,202H0Z" transform="translate(1554.384 -741.949) rotate(99)"/><path class="b" d="M0,395.405l39.265-247.91L219.146,303.05,0,395.405Z" transform="translate(1510.222 -803)"/><path class="a" d="M125.5,0,251,202H0Z" transform="translate(1280.21 -1243.688) rotate(1)"/><path class="a" d="M125.5,0,251,202H0Z" transform="translate(1039.706 -1134.329) rotate(8)"/><path class="a" d="M253.675,772.113,205,540.177v-.745l235.694,85.786L253.675,772.113Z" transform="translate(724 -1337)"/><path class="a" d="M125.5,0,251,202H0Z" transform="translate(1367.887 -922.044) rotate(43)"/><path class="a" d="M125.5,0,251,202H0Z" transform="translate(1461.714 -615.939) rotate(43)"/><path class="a" d="M101.106,0,202.212,162.736H0Z" transform="translate(1375.918 -1109.267) rotate(-1)"/><path class="a" d="M101.106,0,202.212,162.736H0Z" transform="translate(1121.918 -987.108) rotate(-1)"/><path class="a" d="M101.106,0,202.212,162.736H0Z" transform="matrix(-1, -0.017, 0.017, -1, 1186.389, -685.736)"/><path class="a" d="M101.106,0,202.212,162.736H0Z" transform="translate(1401.747 -762.586) rotate(76)"/><path class="a" d="M101.106,0,202.212,162.736H0Z" transform="translate(1596.364 -644.071) rotate(76)"/><path class="b" d="M101.106,0,202.212,162.736H0Z" transform="matrix(0.966, -0.259, 0.259, 0.966, 1494.988, -1082.369)"/><path class="b" d="M101.106,0,202.212,162.736H0Z" transform="matrix(0.966, -0.259, 0.259, 0.966, 1240.987, -960.072)"/><path class="b" d="M101.106,0,202.212,162.736H0Z" transform="matrix(-0.966, -0.259, 0.259, -0.966, 1298.6, -664.063)"/><path class="b" d="M101.106,0,202.212,162.736H0Z" transform="matrix(0.719, 0.695, -0.695, 0.719, 1389.875, -633.526)"/><path class="b" d="M101.106,0,202.212,162.736H0Z" transform="matrix(0.996, 0.087, -0.087, 0.996, 1477.299, -498.367)"/><path class="b" d="M101.106,0,202.212,162.736H0Z" transform="matrix(-0.966, -0.259, 0.259, -0.966, 1488.71, -811.37)"/><path class="b" d="M101.106,0,202.212,162.736H0Z" transform="matrix(-0.966, -0.259, 0.259, -0.966, 1234.71, -689.073)"/><path class="b" d="M352.583,410.346h0l-191.347-9.533,93.315-167.325,98.034,176.858v0h0Z" transform="translate(788 -1244)"/><path class="b" d="M101.106,0,202.212,162.736H0Z" transform="translate(1139.12 -587.232) rotate(-88)"/><path class="b" d="M101.106,0,202.212,162.736H0Z" transform="translate(1333.736 -472.205) rotate(-88)"/></g></svg>